<svg id="my-svg" width="100%" xmlns="http://www.w3.org/2000/svg" xmlns:xlink="http://www.w3.org/1999/xlink" class="statediagram" style="max-width: 859.805px; background-color: white;" viewBox="0 0 859.8046875 954.2000122070312" role="graphics-document document" aria-roledescription="stateDiagram"><style>#my-svg{font-family:Arial;font-size:16px;fill:#000000;}@keyframes edge-animation-frame{from{stroke-dashoffset:0;}}@keyframes dash{to{stroke-dashoffset:0;}}#my-svg .edge-animation-slow{stroke-dasharray:9,5!important;stroke-dashoffset:900;animation:dash 50s linear infinite;stroke-linecap:round;}#my-svg .edge-animation-fast{stroke-dasharray:9,5!important;stroke-dashoffset:900;animation:dash 20s linear infinite;stroke-linecap:round;}#my-svg .error-icon{fill:#552222;}#my-svg .error-text{fill:#552222;stroke:#552222;}#my-svg .edge-thickness-normal{stroke-width:1px;}#my-svg .edge-thickness-thick{stroke-width:3.5px;}#my-svg .edge-pattern-solid{stroke-dasharray:0;}#my-svg .edge-thickness-invisible{stroke-width:0;fill:none;}#my-svg .edge-pattern-dashed{stroke-dasharray:3;}#my-svg .edge-pattern-dotted{stroke-dasharray:2;}#my-svg .marker{fill:#666;stroke:#666;}#my-svg .marker.cross{stroke:#666;}#my-svg svg{font-family:Arial;font-size:16px;}#my-svg p{margin:0;}#my-svg defs [id$="-barbEnd"]{fill:#000;stroke:#000;}#my-svg g.stateGroup text{fill:#999;stroke:none;font-size:10px;}#my-svg g.stateGroup text{fill:#000000;stroke:none;font-size:10px;}#my-svg g.stateGroup .state-title{font-weight:bolder;fill:#111111;}#my-svg g.stateGroup rect{fill:#eee;stroke:#999;}#my-svg g.stateGroup line{stroke:#666;stroke-width:1;}#my-svg .transition{stroke:#000;stroke-width:1;fill:none;}#my-svg .stateGroup .composit{fill:#ffffff;border-bottom:1px;}#my-svg .stateGroup .alt-composit{fill:#e0e0e0;border-bottom:1px;}#my-svg .state-note{stroke:#999;fill:#666;}#my-svg .state-note text{fill:#fff;stroke:none;font-size:10px;}#my-svg .stateLabel .box{stroke:none;stroke-width:0;fill:#eee;opacity:0.5;}#my-svg .edgeLabel .label rect{fill:#eee;opacity:0.5;}#my-svg .edgeLabel{background-color:white;text-align:center;}#my-svg .edgeLabel p{background-color:white;}#my-svg .edgeLabel rect{opacity:0.5;background-color:white;fill:white;}#my-svg .edgeLabel .label text{fill:#000000;}#my-svg .label div .edgeLabel{color:#000000;}#my-svg .stateLabel text{fill:#111111;font-size:10px;font-weight:bold;}#my-svg .node circle.state-start{fill:#222;stroke:#222;}#my-svg .node .fork-join{fill:#222;stroke:#222;}#my-svg .node circle.state-end{fill:hsl(0, 0%, 83.3333333333%);stroke:#ffffff;stroke-width:1.5;}#my-svg .end-state-inner{fill:#ffffff;stroke-width:1.5;}#my-svg .node rect{fill:#eee;stroke:#000;stroke-width:1px;}#my-svg .node polygon{fill:#eee;stroke:#000;stroke-width:1px;}#my-svg [id$="-barbEnd"]{fill:#666;}#my-svg .statediagram-cluster rect{fill:#eee;stroke:#000;stroke-width:1px;}#my-svg .cluster-label,#my-svg .nodeLabel{color:#111111;}#my-svg .statediagram-cluster rect.outer{rx:5px;ry:5px;}#my-svg .statediagram-state .divider{stroke:#000;}#my-svg .statediagram-state .title-state{rx:5px;ry:5px;}#my-svg .statediagram-cluster.statediagram-cluster .inner{fill:#ffffff;}#my-svg .statediagram-cluster.statediagram-cluster-alt .inner{fill:#f4f4f4;}#my-svg .statediagram-cluster .inner{rx:0;ry:0;}#my-svg .statediagram-state rect.basic{rx:5px;ry:5px;}#my-svg .statediagram-state rect.divider{stroke-dasharray:10,10;fill:#f4f4f4;}#my-svg .note-edge{stroke-dasharray:5;}#my-svg .statediagram-note rect{fill:#666;stroke:#999;stroke-width:1px;rx:0;ry:0;}#my-svg .statediagram-note rect{fill:#666;stroke:#999;stroke-width:1px;rx:0;ry:0;}#my-svg .statediagram-note text{fill:#fff;}#my-svg .statediagram-note .nodeLabel{color:#fff;}#my-svg .statediagram .edgeLabel{color:red;}#my-svg [id$="-dependencyStart"],#my-svg [id$="-dependencyEnd"]{fill:#666;stroke:#666;stroke-width:1;}#my-svg .statediagramTitleText{text-anchor:middle;font-size:18px;fill:#000000;}#my-svg [data-look="neo"].statediagram-cluster rect{fill:#eee;stroke:url(#my-svg-gradient);stroke-width:1;}#my-svg [data-look="neo"].statediagram-cluster rect.outer{rx:5px;ry:5px;filter:drop-shadow( 1px 2px 2px rgba(185,185,185,1));}#my-svg .node .neo-node{stroke:#999;}#my-svg [data-look="neo"].node rect,#my-svg [data-look="neo"].cluster rect,#my-svg [data-look="neo"].node polygon{stroke:url(#my-svg-gradient);filter:drop-shadow( 1px 2px 2px rgba(185,185,185,1));}#my-svg [data-look="neo"].swimlane.cluster rect{filter:none;}#my-svg [data-look="neo"].node path{stroke:url(#my-svg-gradient);stroke-width:1px;}#my-svg [data-look="neo"].node .outer-path{filter:drop-shadow( 1px 2px 2px rgba(185,185,185,1));}#my-svg [data-look="neo"].node .neo-line path{stroke:#999;filter:none;}#my-svg [data-look="neo"].node circle{stroke:url(#my-svg-gradient);filter:drop-shadow( 1px 2px 2px rgba(185,185,185,1));}#my-svg [data-look="neo"].node circle .state-start{fill:#000000;}#my-svg [data-look="neo"].icon-shape .icon{fill:url(#my-svg-gradient);filter:drop-shadow( 1px 2px 2px rgba(185,185,185,1));}#my-svg [data-look="neo"].icon-shape .icon-neo path{stroke:url(#my-svg-gradient);filter:drop-shadow( 1px 2px 2px rgba(185,185,185,1));}#my-svg :root{--mermaid-font-family:"trebuchet ms",verdana,arial,sans-serif;}</style><g><defs><marker id="my-svg_stateDiagram-barbEnd" refX="19" refY="7" markerWidth="20" markerHeight="14" markerUnits="userSpaceOnUse" orient="auto"><path d="M 19,7 L9,13 L14,7 L9,1 Z"/></marker></defs><g class="root"><g class="clusters"/><g class="edgePaths"><path d="M487.551,22L487.551,26.167C487.551,30.333,487.551,38.667,487.551,47C487.551,55.333,487.551,63.667,487.551,67.833L487.551,72" id="my-svg-edge0" class="edge-thickness-normal edge-pattern-solid transition" style="fill:none;;;fill:none" data-edge="true" data-et="edge" data-id="edge0" data-points="W3sieCI6NDg3LjU1MDc4MTI1LCJ5IjoyMn0seyJ4Ijo0ODcuNTUwNzgxMjUsInkiOjQ3fSx7IngiOjQ4Ny41NTA3ODEyNSwieSI6NzJ9XQ==" data-look="classic" marker-end="url(#my-svg_stateDiagram-barbEnd)"/><path d="M487.551,112L487.551,116.167C487.551,120.333,487.551,128.667,487.551,137C487.551,145.333,487.551,153.667,487.551,157.833L487.551,162" id="my-svg-edge1" class="edge-thickness-normal edge-pattern-solid transition" style="fill:none;;;fill:none" data-edge="true" data-et="edge" data-id="edge1" data-points="W3sieCI6NDg3LjU1MDc4MTI1LCJ5IjoxMTJ9LHsieCI6NDg3LjU1MDc4MTI1LCJ5IjoxMzd9LHsieCI6NDg3LjU1MDc4MTI1LCJ5IjoxNjJ9XQ==" data-look="classic" marker-end="url(#my-svg_stateDiagram-barbEnd)"/><path d="M464.286,202L457.404,207.917C450.522,213.833,436.757,225.667,429.875,237.5C422.992,249.333,422.992,261.167,422.992,267.083L422.992,273" id="my-svg-edge2" class="edge-thickness-normal edge-pattern-solid transition" style="fill:none;;;fill:none" data-edge="true" data-et="edge" data-id="edge2" data-points="W3sieCI6NDY0LjI4NjQyMzE0MTg5MTksInkiOjIwMn0seyJ4Ijo0MjIuOTkyMTg3NSwieSI6MjM3LjV9LHsieCI6NDIyLjk5MjE4NzUsInkiOjI3M31d" data-look="classic" marker-end="url(#my-svg_stateDiagram-barbEnd)"/><path d="M510.815,202L517.698,207.917C524.58,213.833,538.345,225.667,545.227,237.5C552.109,249.333,552.109,261.167,552.109,267.083L552.109,273" id="my-svg-edge3" class="edge-thickness-normal edge-pattern-solid transition" style="fill:none;;;fill:none" data-edge="true" data-et="edge" data-id="edge3" data-points="W3sieCI6NTEwLjgxNTEzOTM1ODEwODEsInkiOjIwMn0seyJ4Ijo1NTIuMTA5Mzc1LCJ5IjoyMzcuNX0seyJ4Ijo1NTIuMTA5Mzc1LCJ5IjoyNzN9XQ==" data-look="classic" marker-end="url(#my-svg_stateDiagram-barbEnd)"/><path d="M385.641,300.942L356.593,307.118C327.546,313.295,269.452,325.647,240.405,335.99C211.357,346.333,211.357,354.667,211.357,358.833L211.357,363" id="my-svg-edge4" class="edge-thickness-normal edge-pattern-solid transition" style="fill:none;;;fill:none" data-edge="true" data-et="edge" data-id="edge4" data-points="W3sieCI6Mzg1LjY0MDYyNSwieSI6MzAwLjk0MjA4MDM0NTUyNDV9LHsieCI6MjExLjM1NzQyMTg3NSwieSI6MzM4fSx7IngiOjIxMS4zNTc0MjE4NzUsInkiOjM2M31d" data-look="classic" marker-end="url(#my-svg_stateDiagram-barbEnd)"/><path d="M261.607,396.808L286.894,403.757C312.181,410.706,362.755,424.603,388.041,437.468C413.328,450.333,413.328,462.167,413.328,468.083L413.328,474" id="my-svg-edge5" class="edge-thickness-normal edge-pattern-solid transition" style="fill:none;;;fill:none" data-edge="true" data-et="edge" data-id="edge5" data-points="W3sieCI6MjYxLjYwNzQyMTg3NSwieSI6Mzk2LjgwODMxNDU1Njc2fSx7IngiOjQxMy4zMjgxMjUsInkiOjQzOC41fSx7IngiOjQxMy4zMjgxMjUsInkiOjQ3NH1d" data-look="classic" marker-end="url(#my-svg_stateDiagram-barbEnd)"/><path d="M448.461,502.094L482.758,509.995C517.056,517.896,585.651,533.698,619.949,547.516C654.246,561.333,654.246,573.167,654.246,579.083L654.246,585" id="my-svg-edge6" class="edge-thickness-normal edge-pattern-solid transition" style="fill:none;;;fill:none" data-edge="true" data-et="edge" data-id="edge6" data-points="W3sieCI6NDQ4LjQ2MDkzNzUsInkiOjUwMi4wOTM1MDYyODI5MzQ3NX0seyJ4Ijo2NTQuMjQ2MDkzNzUsInkiOjU0OS41fSx7IngiOjY1NC4yNDYwOTM3NSwieSI6NTg1fV0=" data-look="classic" marker-end="url(#my-svg_stateDiagram-barbEnd)"/><path d="M676.675,625L684.955,632.383C693.235,639.767,709.795,654.533,718.075,669.3C726.355,684.067,726.355,698.833,726.355,706.217L726.355,713.6" id="my-svg-edge7" class="edge-thickness-normal edge-pattern-solid transition" style="fill:none;;;fill:none" data-edge="true" data-et="edge" data-id="edge7" data-points="W3sieCI6Njc2LjY3NTEzNzU2MjAwNjMsInkiOjYyNX0seyJ4Ijo3MjYuMzU1NDY4NzUsInkiOjY2OS4yOTk5OTkyMzcwNjA1fSx7IngiOjcyNi4zNTU0Njg3NSwieSI6NzEzLjU5OTk5ODQ3NDEyMTF9XQ==" data-look="classic" marker-end="url(#my-svg_stateDiagram-barbEnd)"/><path d="M440.188,514L448.134,519.917C456.08,525.833,471.971,537.667,479.917,552.833C487.863,568,487.863,586.5,487.863,606.467C487.863,626.433,487.863,647.867,470.611,666.905C453.359,685.944,418.854,702.587,401.602,710.909L384.35,719.231" id="my-svg-edge8" class="edge-thickness-normal edge-pattern-solid transition" style="fill:none;;;fill:none" data-edge="true" data-et="edge" data-id="edge8" data-points="W3sieCI6NDQwLjE4NzY0MDc2NTc2NTc2LCJ5Ijo1MTR9LHsieCI6NDg3Ljg2MzI4MTI1LCJ5Ijo1NDkuNX0seyJ4Ijo0ODcuODYzMjgxMjUsInkiOjYwNX0seyJ4Ijo0ODcuODYzMjgxMjUsInkiOjY2OS4yOTk5OTkyMzcwNjA1fSx7IngiOjM4NC4zNDk2MDkzNzUsInkiOjcxOS4yMzA5MjU2NjM5OTl9XQ==" data-look="classic" marker-end="url(#my-svg_stateDiagram-barbEnd)"/><path d="M617.77,613.525L577.994,622.821C538.219,632.117,458.668,650.708,416.073,667.387C373.478,684.067,367.838,698.833,365.018,706.217L362.199,713.6" id="my-svg-edge9" class="edge-thickness-normal edge-pattern-solid transition" style="fill:none;;;fill:none" data-edge="true" data-et="edge" data-id="edge9" data-points="W3sieCI6NjE3Ljc2OTUzMTI1LCJ5Ijo2MTMuNTI0ODg3MzgwNTY5OH0seyJ4IjozNzkuMTE3MTg3NSwieSI6NjY5LjI5OTk5OTIzNzA2MDV9LHsieCI6MzYyLjE5ODY5MzM0OTc2NTg1LCJ5Ijo3MTMuNTk5OTk4NDc0MTIxMX1d" data-look="classic" marker-end="url(#my-svg_stateDiagram-barbEnd)"/><path d="M328.374,713.6L318.707,706.217C309.04,698.833,289.705,684.067,280.038,665.967C270.371,647.867,270.371,626.433,270.371,606.467C270.371,586.5,270.371,568,288.342,551.773C306.313,535.547,342.254,521.593,360.225,514.616L378.195,507.64" id="my-svg-edge10" class="edge-thickness-normal edge-pattern-solid transition" style="fill:none;;;fill:none" data-edge="true" data-et="edge" data-id="edge10" data-points="W3sieCI6MzI4LjM3NDA5MTQ3MDk3Njk2LCJ5Ijo3MTMuNTk5OTk4NDc0MTIxMX0seyJ4IjoyNzAuMzcxMDkzNzUsInkiOjY2OS4yOTk5OTkyMzcwNjA1fSx7IngiOjI3MC4zNzEwOTM3NSwieSI6NjA1fSx7IngiOjI3MC4zNzEwOTM3NSwieSI6NTQ5LjV9LHsieCI6Mzc4LjE5NTMxMjUsInkiOjUwNy42Mzk1NjA2MTk3MjI5NH1d" data-look="classic" marker-end="url(#my-svg_stateDiagram-barbEnd)"/><path d="M695.23,739.167L640.507,748.956C585.783,758.745,476.335,778.322,381.482,797.374C286.629,816.425,206.371,834.95,166.242,844.213L126.113,853.476" id="my-svg-edge11" class="edge-thickness-normal edge-pattern-solid transition" style="fill:none;;;fill:none" data-edge="true" data-et="edge" data-id="edge11" data-points="W3sieCI6Njk1LjIzMDQ2ODc1LCJ5Ijo3MzkuMTY3NDg1MTUwNjV9LHsieCI6MzY2Ljg4NjcxODc1LCJ5Ijo3OTcuODk5OTk3NzExMTgxNn0seyJ4IjoxMjYuMTEzMjgxMjUsInkiOjg1My40NzU2NjgwMjgwMDV9XQ==" data-look="classic" marker-end="url(#my-svg_stateDiagram-barbEnd)"/><path d="M86.95,842.2L86.445,834.817C85.94,827.433,84.931,812.667,84.426,794.567C83.922,776.467,83.922,755.033,83.922,733.6C83.922,712.167,83.922,690.733,83.922,669.3C83.922,647.867,83.922,626.433,83.922,606.467C83.922,586.5,83.922,568,83.922,549.5C83.922,531,83.922,512.5,83.922,494C83.922,475.5,83.922,457,97.507,441.833C111.093,426.667,138.264,414.833,151.849,408.917L165.435,403" id="my-svg-edge12" class="edge-thickness-normal edge-pattern-solid transition" style="fill:none;;;fill:none" data-edge="true" data-et="edge" data-id="edge12" data-points="W3sieCI6ODYuOTQ5NTIyNDg1NzI1NTEsInkiOjg0Mi4xOTk5OTY5NDgyNDIyfSx7IngiOjgzLjkyMTg3NSwieSI6Nzk3Ljg5OTk5NzcxMTE4MTZ9LHsieCI6ODMuOTIxODc1LCJ5Ijo3MzMuNTk5OTk4NDc0MTIxMX0seyJ4Ijo4My45MjE4NzUsInkiOjY2OS4yOTk5OTkyMzcwNjA1fSx7IngiOjgzLjkyMTg3NSwieSI6NjA1fSx7IngiOjgzLjkyMTg3NSwieSI6NTQ5LjV9LHsieCI6ODMuOTIxODc1LCJ5Ijo0OTR9LHsieCI6ODMuOTIxODc1LCJ5Ijo0MzguNX0seyJ4IjoxNjUuNDM0NzAyMjgwNDA1NDIsInkiOjQwM31d" data-look="classic" marker-end="url(#my-svg_stateDiagram-barbEnd)"/><path d="M723.148,753.6L721.964,760.983C720.78,768.367,718.411,783.133,709.148,797.9C699.884,812.667,683.725,827.433,675.645,834.817L667.566,842.2" id="my-svg-edge13" class="edge-thickness-normal edge-pattern-solid transition" style="fill:none;;;fill:none" data-edge="true" data-et="edge" data-id="edge13" data-points="W3sieCI6NzIzLjE0Nzg0ODE4MzE2OTIsInkiOjc1My41OTk5OTg0NzQxMjExfSx7IngiOjcxNi4wNDI5Njg3NSwieSI6Nzk3Ljg5OTk5NzcxMTE4MTZ9LHsieCI6NjY3LjU2NTYyMjgyOTY2NzksInkiOjg0Mi4xOTk5OTY5NDgyNDIyfV0=" data-look="classic" marker-end="url(#my-svg_stateDiagram-barbEnd)"/><path d="M626.551,842.2L619.489,834.817C612.427,827.433,598.303,812.667,591.242,794.567C584.18,776.467,584.18,755.033,584.18,733.6C584.18,712.167,584.18,690.733,592.225,672.633C600.271,654.533,616.362,639.767,624.407,632.383L632.452,625" id="my-svg-edge14" class="edge-thickness-normal edge-pattern-solid transition" style="fill:none;;;fill:none" data-edge="true" data-et="edge" data-id="edge14" data-points="W3sieCI6NjI2LjU1MDYwNDg0NjksInkiOjg0Mi4xOTk5OTY5NDgyNDIyfSx7IngiOjU4NC4xNzk2ODc1LCJ5Ijo3OTcuODk5OTk3NzExMTgxNn0seyJ4Ijo1ODQuMTc5Njg3NSwieSI6NzMzLjU5OTk5ODQ3NDEyMTF9LHsieCI6NTg0LjE3OTY4NzUsInkiOjY2OS4yOTk5OTkyMzcwNjA1fSx7IngiOjYzMi40NTI0OTkwMTI0MDc1LCJ5Ijo2MjV9XQ==" data-look="classic" marker-end="url(#my-svg_stateDiagram-barbEnd)"/><path d="M460.344,297.21L520.658,304.008C580.971,310.807,701.599,324.403,761.913,338.702C822.227,353,822.227,368,822.227,384.75C822.227,401.5,822.227,420,822.227,438.5C822.227,457,822.227,475.5,822.227,494C822.227,512.5,822.227,531,822.227,549.5C822.227,568,822.227,586.5,822.227,606.467C822.227,626.433,822.227,647.867,822.227,669.3C822.227,690.733,822.227,712.167,822.227,733.6C822.227,755.033,822.227,776.467,821.078,794.567C819.93,812.667,817.634,827.433,816.485,834.817L815.337,842.2" id="my-svg-edge15" class="edge-thickness-normal edge-pattern-solid transition" style="fill:none;;;fill:none" data-edge="true" data-et="edge" data-id="edge15" data-points="W3sieCI6NDYwLjM0Mzc1LCJ5IjoyOTcuMjEwMTA5MTkzMzc3OTV9LHsieCI6ODIyLjIyNjU2MjUsInkiOjMzOH0seyJ4Ijo4MjIuMjI2NTYyNSwieSI6MzgzfSx7IngiOjgyMi4yMjY1NjI1LCJ5Ijo0MzguNX0seyJ4Ijo4MjIuMjI2NTYyNSwieSI6NDk0fSx7IngiOjgyMi4yMjY1NjI1LCJ5Ijo1NDkuNX0seyJ4Ijo4MjIuMjI2NTYyNSwieSI6NjA1fSx7IngiOjgyMi4yMjY1NjI1LCJ5Ijo2NjkuMjk5OTk5MjM3MDYwNX0seyJ4Ijo4MjIuMjI2NTYyNSwieSI6NzMzLjU5OTk5ODQ3NDEyMTF9LHsieCI6ODIyLjIyNjU2MjUsInkiOjc5Ny44OTk5OTc3MTExODE2fSx7IngiOjgxNS4zMzY5ODI0NDM1OTM1LCJ5Ijo4NDIuMTk5OTk2OTQ4MjQyMn1d" data-look="classic" marker-end="url(#my-svg_stateDiagram-barbEnd)"/><path d="M745.485,753.6L752.546,760.983C759.608,768.367,773.732,783.133,783.592,797.9C793.452,812.667,799.049,827.433,801.848,834.817L804.646,842.2" id="my-svg-edge16" class="edge-thickness-normal edge-pattern-solid transition" style="fill:none;;;fill:none" data-edge="true" data-et="edge" data-id="edge16" data-points="W3sieCI6NzQ1LjQ4NDU1MTQwMzEsInkiOjc1My41OTk5OTg0NzQxMjExfSx7IngiOjc4Ny44NTU0Njg3NSwieSI6Nzk3Ljg5OTk5NzcxMTE4MTZ9LHsieCI6ODA0LjY0NjEyODg5NTI4MTMsInkiOjg0Mi4xOTk5OTY5NDgyNDIyfV0=" data-look="classic" marker-end="url(#my-svg_stateDiagram-barbEnd)"/><path d="M812.227,882.2L812.227,886.367C812.227,890.533,812.227,898.867,812.227,907.199C812.227,915.531,812.227,923.862,812.227,928.028L812.227,932.193" id="my-svg-edge17" class="edge-thickness-normal edge-pattern-solid transition" style="fill:none;;;fill:none" data-edge="true" data-et="edge" data-id="edge17" data-points="W3sieCI6ODEyLjIyNjU2MjUsInkiOjg4Mi4xOTk5OTY5NDgyNDIyfSx7IngiOjgxMi4yMjY1NjI1LCJ5Ijo5MDcuMTk5OTk2OTQ4MjQyMn0seyJ4Ijo4MTIuMjI2NTYyNSwieSI6OTMyLjE5MzM1MDMxNTA5NH1d" data-look="classic" marker-end="url(#my-svg_stateDiagram-barbEnd)"/></g><g class="edgeLabels"><g class="edgeLabel"><g class="label" data-id="edge0" transform="translate(0, 0)"><text y="-10.1" text-anchor="middle"><tspan class="text-outer-tspan row" x="0" y="-0.1em" dy="1.1em" text-anchor="middle"/></text></g></g><g><rect class="background" style="stroke: none"/></g><g class="edgeLabel"><g class="label" data-id="edge1" transform="translate(0, 0)"><text y="-10.1" text-anchor="middle"><tspan class="text-outer-tspan row" x="0" y="-0.1em" dy="1.1em" text-anchor="middle"/></text></g></g><g><rect class="background" style="stroke: none"/></g><g class="edgeLabel" transform="translate(422.9921875, 237.5)"><g class="label" data-id="edge2" transform="translate(0.453125, -10.5)"><g><rect class="background" style="" x="-55.9296875" y="0" width="110.953125" height="21"/><text y="-10.1" text-anchor="middle" style=""><tspan class="text-outer-tspan row" x="0" y="-0.1em" dy="1.1em" text-anchor="middle"><tspan font-style="normal" class="text-inner-tspan" font-weight="normal">Verified</tspan><tspan font-style="normal" class="text-inner-tspan" font-weight="normal"> pairing</tspan></tspan></text></g></g></g><g class="edgeLabel" transform="translate(552.109375, 237.5)"><g class="label" data-id="edge3" transform="translate(0.5, -10.5)"><g><rect class="background" style="" x="-54.140625" y="0" width="107.28125" height="21"/><text y="-10.1" text-anchor="middle" style=""><tspan class="text-outer-tspan row" x="0" y="-0.1em" dy="1.1em" text-anchor="middle"><tspan font-style="normal" class="text-inner-tspan" font-weight="normal">Admin</tspan><tspan font-style="normal" class="text-inner-tspan" font-weight="normal"> ignores</tspan></tspan></text></g></g></g><g class="edgeLabel"><g class="label" data-id="edge4" transform="translate(0, 0)"><text y="-10.1" text-anchor="middle"><tspan class="text-outer-tspan row" x="0" y="-0.1em" dy="1.1em" text-anchor="middle"/></text></g></g><g><rect class="background" style="stroke: none"/></g><g class="edgeLabel" transform="translate(413.328125, 438.5)"><g class="label" data-id="edge5" transform="translate(0.453125, -10.5)"><g><rect class="background" style="" x="-80.3828125" y="0" width="159.859375" height="21"/><text y="-10.1" text-anchor="middle" style=""><tspan class="text-outer-tspan row" x="0" y="-0.1em" dy="1.1em" text-anchor="middle"><tspan font-style="normal" class="text-inner-tspan" font-weight="normal">Assignment</tspan><tspan font-style="normal" class="text-inner-tspan" font-weight="normal"> approved</tspan></tspan></text></g></g></g><g class="edgeLabel" transform="translate(654.24609375, 549.5)"><g class="label" data-id="edge6" transform="translate(-0.046875, -10.5)"><g><rect class="background" style="" x="-57.140625" y="0" width="114.375" height="21"/><text y="-10.1" text-anchor="middle" style=""><tspan class="text-outer-tspan row" x="0" y="-0.1em" dy="1.1em" text-anchor="middle"><tspan font-style="normal" class="text-inner-tspan" font-weight="normal">Hashes</tspan><tspan font-style="normal" class="text-inner-tspan" font-weight="normal"> verified</tspan></tspan></text></g></g></g><g class="edgeLabel" transform="translate(726.35546875, 669.2999992370605)"><g class="label" data-id="edge7" transform="translate(0, -10.5)"><g><rect class="background" style="" x="-50.921875" y="0" width="101.84375" height="21"/><text y="-10.1" text-anchor="middle" style=""><tspan class="text-outer-tspan row" x="0" y="-0.1em" dy="1.1em" text-anchor="middle"><tspan font-style="normal" class="text-inner-tspan" font-weight="normal">Probe</tspan><tspan font-style="normal" class="text-inner-tspan" font-weight="normal"> passes</tspan></tspan></text></g></g></g><g class="edgeLabel" transform="translate(487.86328125, 605)"><g class="label" data-id="edge8" transform="translate(-0.33203125, -10.5)"><g><rect class="background" style="" x="-90.1796875" y="0" width="181.0234375" height="21"/><text y="-10.1" text-anchor="middle" style=""><tspan class="text-outer-tspan row" x="0" y="-0.1em" dy="1.1em" text-anchor="middle"><tspan font-style="normal" class="text-inner-tspan" font-weight="normal">Transfer</tspan><tspan font-style="normal" class="text-inner-tspan" font-weight="normal"> or</tspan><tspan font-style="normal" class="text-inner-tspan" font-weight="normal"> integrity</tspan><tspan font-style="normal" class="text-inner-tspan" font-weight="normal"> error</tspan></tspan></text></g></g></g><g class="edgeLabel" transform="translate(475.35515, 646.80836)"><g class="label" data-id="edge9" transform="translate(-0.49609375, -19.299999237060547)"><g><rect class="background" style="" x="-88.25" y="0" width="177.4921875" height="38.599998474121094"/><text y="-10.1" text-anchor="middle" style=""><tspan class="text-outer-tspan row" x="0" y="-0.1em" dy="1.1em" text-anchor="middle"><tspan font-style="normal" class="text-inner-tspan" font-weight="normal">Compatibility</tspan><tspan font-style="normal" class="text-inner-tspan" font-weight="normal"> or</tspan><tspan font-style="normal" class="text-inner-tspan" font-weight="normal"> memory</tspan></tspan><tspan class="text-outer-tspan row" x="0" y="1em" dy="1.1em" text-anchor="middle"><tspan font-style="normal" class="text-inner-tspan" font-weight="normal">error</tspan></tspan></text></g></g></g><g class="edgeLabel" transform="translate(270.37109375, 605)"><g class="label" data-id="edge10" transform="translate(-0.05078125, -19.299999237060547)"><g><rect class="background" style="" x="-90.4765625" y="0" width="181.0546875" height="38.599998474121094"/><text y="-10.1" text-anchor="middle" style=""><tspan class="text-outer-tspan row" x="0" y="-0.1em" dy="1.1em" text-anchor="middle"><tspan font-style="normal" class="text-inner-tspan" font-weight="normal">Explicit</tspan><tspan font-style="normal" class="text-inner-tspan" font-weight="normal"> retry</tspan><tspan font-style="normal" class="text-inner-tspan" font-weight="normal"> or</tspan><tspan font-style="normal" class="text-inner-tspan" font-weight="normal"> corrected</tspan></tspan><tspan class="text-outer-tspan row" x="0" y="1em" dy="1.1em" text-anchor="middle"><tspan font-style="normal" class="text-inner-tspan" font-weight="normal">desired</tspan><tspan font-style="normal" class="text-inner-tspan" font-weight="normal"> state</tspan></tspan></text></g></g></g><g class="edgeLabel" transform="translate(409.43688, 790.28883)"><g class="label" data-id="edge11" transform="translate(-0.3359375, -19.299999237060547)"><g><rect class="background" style="" x="-57.1484375" y="0" width="114.96875" height="38.599998474121094"/><text y="-10.1" text-anchor="middle" style=""><tspan class="text-outer-tspan row" x="0" y="-0.1em" dy="1.1em" text-anchor="middle"><tspan font-style="normal" class="text-inner-tspan" font-weight="normal">Maintenance</tspan><tspan font-style="normal" class="text-inner-tspan" font-weight="normal"> or</tspan></tspan><tspan class="text-outer-tspan row" x="0" y="1em" dy="1.1em" text-anchor="middle"><tspan font-style="normal" class="text-inner-tspan" font-weight="normal">reassignment</tspan></tspan></text></g></g></g><g class="edgeLabel" transform="translate(83.921875, 605)"><g class="label" data-id="edge12" transform="translate(0.453125, -10.5)"><g><rect class="background" style="" x="-76.375" y="0" width="151.84375" height="21"/><text y="-10.1" text-anchor="middle" style=""><tspan class="text-outer-tspan row" x="0" y="-0.1em" dy="1.1em" text-anchor="middle"><tspan font-style="normal" class="text-inner-tspan" font-weight="normal">Active</tspan><tspan font-style="normal" class="text-inner-tspan" font-weight="normal"> jobs</tspan><tspan font-style="normal" class="text-inner-tspan" font-weight="normal"> complete</tspan></tspan></text></g></g></g><g class="edgeLabel" transform="translate(716.04296875, 797.8999977111816)"><g class="label" data-id="edge13" transform="translate(0, -10.5)"><g><rect class="background" style="" x="-51.8125" y="0" width="103.625" height="21"/><text y="-10.1" text-anchor="middle" style=""><tspan class="text-outer-tspan row" x="0" y="-0.1em" dy="1.1em" text-anchor="middle"><tspan font-style="normal" class="text-inner-tspan" font-weight="normal">Lease</tspan><tspan font-style="normal" class="text-inner-tspan" font-weight="normal"> expires</tspan></tspan></text></g></g></g><g class="edgeLabel" transform="translate(584.1796875, 733.5999984741211)"><g class="label" data-id="edge14" transform="translate(0.453125, -10.5)"><g><rect class="background" style="" x="-75.0546875" y="0" width="149.203125" height="21"/><text y="-10.1" text-anchor="middle" style=""><tspan class="text-outer-tspan row" x="0" y="-0.1em" dy="1.1em" text-anchor="middle"><tspan font-style="normal" class="text-inner-tspan" font-weight="normal">Authenticated</tspan><tspan font-style="normal" class="text-inner-tspan" font-weight="normal"> return</tspan></tspan></text></g></g></g><g class="edgeLabel"><g class="label" data-id="edge15" transform="translate(0, 0)"><text y="-10.1" text-anchor="middle"><tspan class="text-outer-tspan row" x="0" y="-0.1em" dy="1.1em" text-anchor="middle"/></text></g></g><g><rect class="background" style="stroke: none"/></g><g class="edgeLabel"><g class="label" data-id="edge16" transform="translate(0, 0)"><text y="-10.1" text-anchor="middle"><tspan class="text-outer-tspan row" x="0" y="-0.1em" dy="1.1em" text-anchor="middle"/></text></g></g><g><rect class="background" style="stroke: none"/></g><g class="edgeLabel"><g class="label" data-id="edge17" transform="translate(0, 0)"><text y="-10.1" text-anchor="middle"><tspan class="text-outer-tspan row" x="0" y="-0.1em" dy="1.1em" text-anchor="middle"/></text></g></g><g><rect class="background" style="stroke: none"/></g></g><g class="nodes"><g class="node default" id="my-svg-state-root_start-0" data-look="classic" transform="translate(487.55078125, 15)"><circle class="state-start" r="7" width="14" height="14"/></g><g class="node  statediagram-state" id="my-svg-state-Discovered-1" data-look="classic" transform="translate(487.55078125, 92)"><rect class="basic label-container" style="" rx="5" ry="5" x="-48.015625" y="-20" width="96.03125" height="40"/><g class="label" style="" transform="translate(-40.015625, -12)"><rect/><foreignObject width="80.03125" height="24"><div xmlns="http://www.w3.org/1999/xhtml" style="display: table-cell; white-space: nowrap; line-height: 1.5; max-width: 200px; text-align: center;"><span class="nodeLabel markdown-node-label"><p>Discovered</p></span></div></foreignObject></g></g><g class="node  statediagram-state" id="my-svg-state-PendingVerification-3" data-look="classic" transform="translate(487.55078125, 182)"><rect class="basic label-container" style="" rx="5" ry="5" x="-76.4921875" y="-20" width="152.984375" height="40"/><g class="label" style="" transform="translate(-68.4921875, -12)"><rect/><foreignObject width="136.984375" height="24"><div xmlns="http://www.w3.org/1999/xhtml" style="display: table-cell; white-space: nowrap; line-height: 1.5; max-width: 200px; text-align: center;"><span class="nodeLabel markdown-node-label"><p>PendingVerification</p></span></div></foreignObject></g></g><g class="node  statediagram-state" id="my-svg-state-Enrolled-15" data-look="classic" transform="translate(422.9921875, 293)"><rect class="basic label-container" style="" rx="5" ry="5" x="-37.3515625" y="-20" width="74.703125" height="40"/><g class="label" style="" transform="translate(-29.3515625, -12)"><rect/><foreignObject width="58.703125" height="24"><div xmlns="http://www.w3.org/1999/xhtml" style="display: table-cell; white-space: nowrap; line-height: 1.5; max-width: 200px; text-align: center;"><span class="nodeLabel markdown-node-label"><p>Enrolled</p></span></div></foreignObject></g></g><g class="node  statediagram-state" id="my-svg-state-Ignored-3" data-look="classic" transform="translate(552.109375, 293)"><rect class="basic label-container" style="" rx="5" ry="5" x="-35.1328125" y="-20" width="70.265625" height="40"/><g class="label" style="" transform="translate(-27.1328125, -12)"><rect/><foreignObject width="54.265625" height="24"><div xmlns="http://www.w3.org/1999/xhtml" style="display: table-cell; white-space: nowrap; line-height: 1.5; max-width: 200px; text-align: center;"><span class="nodeLabel markdown-node-label"><p>Ignored</p></span></div></foreignObject></g></g><g class="node  statediagram-state" id="my-svg-state-Unassigned-12" data-look="classic" transform="translate(211.357421875, 383)"><rect class="basic label-container" style="" rx="5" ry="5" x="-50.25" y="-20" width="100.5" height="40"/><g class="label" style="" transform="translate(-42.25, -12)"><rect/><foreignObject width="84.5" height="24"><div xmlns="http://www.w3.org/1999/xhtml" style="display: table-cell; white-space: nowrap; line-height: 1.5; max-width: 200px; text-align: center;"><span class="nodeLabel markdown-node-label"><p>Unassigned</p></span></div></foreignObject></g></g><g class="node  statediagram-state" id="my-svg-state-Staging-10" data-look="classic" transform="translate(413.328125, 494)"><rect class="basic label-container" style="" rx="5" ry="5" x="-35.1328125" y="-20" width="70.265625" height="40"/><g class="label" style="" transform="translate(-27.1328125, -12)"><rect/><foreignObject width="54.265625" height="24"><div xmlns="http://www.w3.org/1999/xhtml" style="display: table-cell; white-space: nowrap; line-height: 1.5; max-width: 200px; text-align: center;"><span class="nodeLabel markdown-node-label"><p>Staging</p></span></div></foreignObject></g></g><g class="node  statediagram-state" id="my-svg-state-Loading-14" data-look="classic" transform="translate(654.24609375, 605)"><rect class="basic label-container" style="" rx="5" ry="5" x="-36.4765625" y="-20" width="72.953125" height="40"/><g class="label" style="" transform="translate(-28.4765625, -12)"><rect/><foreignObject width="56.953125" height="24"><div xmlns="http://www.w3.org/1999/xhtml" style="display: table-cell; white-space: nowrap; line-height: 1.5; max-width: 200px; text-align: center;"><span class="nodeLabel markdown-node-label"><p>Loading</p></span></div></foreignObject></g></g><g class="node  statediagram-state" id="my-svg-state-Ready-16" data-look="classic" transform="translate(726.35546875, 733.5999984741211)"><rect class="basic label-container" style="" rx="5" ry="5" x="-31.125" y="-20" width="62.25" height="40"/><g class="label" style="" transform="translate(-23.125, -12)"><rect/><foreignObject width="46.25" height="24"><div xmlns="http://www.w3.org/1999/xhtml" style="display: table-cell; white-space: nowrap; line-height: 1.5; max-width: 200px; text-align: center;"><span class="nodeLabel markdown-node-label"><p>Ready</p></span></div></foreignObject></g></g><g class="node  statediagram-state" id="my-svg-state-Failed-10" data-look="classic" transform="translate(354.560546875, 733.5999984741211)"><rect class="basic label-container" style="" rx="5" ry="5" x="-29.7890625" y="-20" width="59.578125" height="40"/><g class="label" style="" transform="translate(-21.7890625, -12)"><rect/><foreignObject width="43.578125" height="24"><div xmlns="http://www.w3.org/1999/xhtml" style="display: table-cell; white-space: nowrap; line-height: 1.5; max-width: 200px; text-align: center;"><span class="nodeLabel markdown-node-label"><p>Failed</p></span></div></foreignObject></g></g><g class="node  statediagram-state" id="my-svg-state-Draining-12" data-look="classic" transform="translate(88.31640625, 862.1999969482422)"><rect class="basic label-container" style="" rx="5" ry="5" x="-37.796875" y="-20" width="75.59375" height="40"/><g class="label" style="" transform="translate(-29.796875, -12)"><rect/><foreignObject width="59.59375" height="24"><div xmlns="http://www.w3.org/1999/xhtml" style="display: table-cell; white-space: nowrap; line-height: 1.5; max-width: 200px; text-align: center;"><span class="nodeLabel markdown-node-label"><p>Draining</p></span></div></foreignObject></g></g><g class="node  statediagram-state" id="my-svg-state-Offline-14" data-look="classic" transform="translate(645.6796875, 862.1999969482422)"><rect class="basic label-container" style="" rx="5" ry="5" x="-30.9765625" y="-20" width="61.953125" height="40"/><g class="label" style="" transform="translate(-22.9765625, -12)"><rect/><foreignObject width="45.953125" height="24"><div xmlns="http://www.w3.org/1999/xhtml" style="display: table-cell; white-space: nowrap; line-height: 1.5; max-width: 200px; text-align: center;"><span class="nodeLabel markdown-node-label"><p>Offline</p></span></div></foreignObject></g></g><g class="node  statediagram-state" id="my-svg-state-Revoked-17" data-look="classic" transform="translate(812.2265625, 862.1999969482422)"><rect class="basic label-container" style="" rx="5" ry="5" x="-39.578125" y="-20" width="79.15625" height="40"/><g class="label" style="" transform="translate(-31.578125, -12)"><rect/><foreignObject width="63.15625" height="24"><div xmlns="http://www.w3.org/1999/xhtml" style="display: table-cell; white-space: nowrap; line-height: 1.5; max-width: 200px; text-align: center;"><span class="nodeLabel markdown-node-label"><p>Revoked</p></span></div></foreignObject></g></g><g class="node default" id="my-svg-state-root_end-17" data-look="classic" transform="translate(812.2265625, 939.1999969482422)"><g class="outer-path"><path d="M7 0 C7 0.40517908122283747, 6.964012880168563 0.816513743121899, 6.893654271085456 1.2155372436685123 C6.823295662002349 1.6145607442151257, 6.716427752933756 2.013397210557766, 6.5778483455013586 2.394141003279681 C6.439268938068961 2.7748847960015954, 6.26476736710249 3.149104622578984, 6.062177826491071 3.4999999999999996 C5.859588285879653 3.8508953774210153, 5.622755194947063 4.189128084166967, 5.362311101832846 4.499513267805774 C5.10186700871863 4.809898451444582, 4.809898451444583 5.10186700871863, 4.499513267805775 5.362311101832846 C4.189128084166968 5.622755194947063, 3.8508953774210166 5.859588285879652, 3.500000000000001 6.06217782649107 C3.149104622578985 6.264767367102489, 2.7748847960015963 6.439268938068961, 2.3941410032796817 6.5778483455013586 C2.013397210557767 6.716427752933756, 1.6145607442151264 6.823295662002349, 1.2155372436685128 6.893654271085456 C0.8165137431218992 6.964012880168563, 0.4051790812228379 7, 4.286263797015736e-16 7 C-0.405179081222837 7, -0.8165137431218985 6.964012880168563, -1.2155372436685121 6.893654271085456 C-1.6145607442151257 6.823295662002349, -2.0133972105577667 6.716427752933756, -2.394141003279681 6.5778483455013586 C-2.774884796001595 6.439268938068961, -3.149104622578983 6.26476736710249, -3.4999999999999982 6.062177826491071 C-3.8508953774210135 5.859588285879653, -4.189128084166966 5.6227551949470636, -4.499513267805773 5.362311101832848 C-4.809898451444581 5.101867008718632, -5.101867008718628 4.809898451444586, -5.3623111018328435 4.499513267805779 C-5.622755194947059 4.189128084166971, -5.859588285879649 3.8508953774210206, -6.062177826491068 3.5000000000000053 C-6.264767367102486 3.14910462257899, -6.439268938068958 2.774884796001602, -6.577848345501356 2.394141003279688 C-6.716427752933754 2.0133972105577738, -6.823295662002347 1.614560744215134, -6.893654271085454 1.215537243668521 C-6.9640128801685615 0.816513743121908, -6.999999999999999 0.4051790812228472, -7 1.0183126166254463e-14 C-7.000000000000001 -0.40517908122282686, -6.964012880168565 -0.8165137431218878, -6.893654271085459 -1.215537243668501 C-6.823295662002352 -1.6145607442151142, -6.716427752933759 -2.0133972105577542, -6.577848345501363 -2.394141003279669 C-6.439268938068967 -2.7748847960015834, -6.264767367102496 -3.149104622578972, -6.062177826491078 -3.4999999999999876 C-5.859588285879661 -3.8508953774210033, -5.6227551949470715 -4.1891280841669545, -5.362311101832856 -4.499513267805763 C-5.10186700871864 -4.809898451444571, -4.809898451444594 -5.10186700871862, -4.499513267805787 -5.362311101832836 C-4.189128084166979 -5.622755194947053, -3.850895377421028 -5.859588285879643, -3.5000000000000133 -6.062177826491062 C-3.1491046225789985 -6.264767367102482, -2.774884796001611 -6.439268938068954, -2.3941410032796973 -6.577848345501353 C-2.0133972105577835 -6.716427752933752, -1.6145607442151435 -6.823295662002345, -1.2155372436685306 -6.893654271085453 C-0.8165137431219176 -6.9640128801685615, -0.40517908122285695 -6.999999999999999, -1.9937625952807352e-14 -7 C0.4051790812228171 -7.000000000000001, 0.8165137431218781 -6.964012880168565, 1.2155372436684913 -6.89365427108546 C1.6145607442151044 -6.823295662002354, 2.013397210557745 -6.716427752933763, 2.3941410032796595 -6.5778483455013665 C2.774884796001574 -6.43926893806897, 3.149104622578963 -6.2647673671025, 3.499999999999979 -6.062177826491083 C3.8508953774209953 -5.859588285879665, 4.189128084166947 -5.622755194947077, 4.499513267805756 -5.362311101832862 C4.809898451444564 -5.1018670087186475, 5.101867008718613 -4.809898451444602, 5.362311101832829 -4.499513267805796 C5.622755194947046 -4.189128084166989, 5.859588285879637 -3.8508953774210393, 6.062177826491056 -3.500000000000025 C6.2647673671024755 -3.1491046225790105, 6.439268938068949 -2.774884796001623, 6.577848345501348 -2.3941410032797092 C6.716427752933747 -2.0133972105577955, 6.823295662002342 -1.6145607442151562, 6.893654271085451 -1.2155372436685434 C6.96401288016856 -0.8165137431219307, 6.982275711847575 -0.2025895406114567, 7 -3.2800750208310675e-14 C7.017724288152425 0.2025895406113911, 7.017724288152424 -0.2025895406114242, 7 0" stroke="none" stroke-width="0" fill="#eee" style=""/><path d="M7 0 C7 0.40517908122283747, 6.964012880168563 0.816513743121899, 6.893654271085456 1.2155372436685123 C6.823295662002349 1.6145607442151257, 6.716427752933756 2.013397210557766, 6.5778483455013586 2.394141003279681 C6.439268938068961 2.7748847960015954, 6.26476736710249 3.149104622578984, 6.062177826491071 3.4999999999999996 C5.859588285879653 3.8508953774210153, 5.622755194947063 4.189128084166967, 5.362311101832846 4.499513267805774 C5.10186700871863 4.809898451444582, 4.809898451444583 5.10186700871863, 4.499513267805775 5.362311101832846 C4.189128084166968 5.622755194947063, 3.8508953774210166 5.859588285879652, 3.500000000000001 6.06217782649107 C3.149104622578985 6.264767367102489, 2.7748847960015963 6.439268938068961, 2.3941410032796817 6.5778483455013586 C2.013397210557767 6.716427752933756, 1.6145607442151264 6.823295662002349, 1.2155372436685128 6.893654271085456 C0.8165137431218992 6.964012880168563, 0.4051790812228379 7, 4.286263797015736e-16 7 C-0.405179081222837 7, -0.8165137431218985 6.964012880168563, -1.2155372436685121 6.893654271085456 C-1.6145607442151257 6.823295662002349, -2.0133972105577667 6.716427752933756, -2.394141003279681 6.5778483455013586 C-2.774884796001595 6.439268938068961, -3.149104622578983 6.26476736710249, -3.4999999999999982 6.062177826491071 C-3.8508953774210135 5.859588285879653, -4.189128084166966 5.6227551949470636, -4.499513267805773 5.362311101832848 C-4.809898451444581 5.101867008718632, -5.101867008718628 4.809898451444586, -5.3623111018328435 4.499513267805779 C-5.622755194947059 4.189128084166971, -5.859588285879649 3.8508953774210206, -6.062177826491068 3.5000000000000053 C-6.264767367102486 3.14910462257899, -6.439268938068958 2.774884796001602, -6.577848345501356 2.394141003279688 C-6.716427752933754 2.0133972105577738, -6.823295662002347 1.614560744215134, -6.893654271085454 1.215537243668521 C-6.9640128801685615 0.816513743121908, -6.999999999999999 0.4051790812228472, -7 1.0183126166254463e-14 C-7.000000000000001 -0.40517908122282686, -6.964012880168565 -0.8165137431218878, -6.893654271085459 -1.215537243668501 C-6.823295662002352 -1.6145607442151142, -6.716427752933759 -2.0133972105577542, -6.577848345501363 -2.394141003279669 C-6.439268938068967 -2.7748847960015834, -6.264767367102496 -3.149104622578972, -6.062177826491078 -3.4999999999999876 C-5.859588285879661 -3.8508953774210033, -5.6227551949470715 -4.1891280841669545, -5.362311101832856 -4.499513267805763 C-5.10186700871864 -4.809898451444571, -4.809898451444594 -5.10186700871862, -4.499513267805787 -5.362311101832836 C-4.189128084166979 -5.622755194947053, -3.850895377421028 -5.859588285879643, -3.5000000000000133 -6.062177826491062 C-3.1491046225789985 -6.264767367102482, -2.774884796001611 -6.439268938068954, -2.3941410032796973 -6.577848345501353 C-2.0133972105577835 -6.716427752933752, -1.6145607442151435 -6.823295662002345, -1.2155372436685306 -6.893654271085453 C-0.8165137431219176 -6.9640128801685615, -0.40517908122285695 -6.999999999999999, -1.9937625952807352e-14 -7 C0.4051790812228171 -7.000000000000001, 0.8165137431218781 -6.964012880168565, 1.2155372436684913 -6.89365427108546 C1.6145607442151044 -6.823295662002354, 2.013397210557745 -6.716427752933763, 2.3941410032796595 -6.5778483455013665 C2.774884796001574 -6.43926893806897, 3.149104622578963 -6.2647673671025, 3.499999999999979 -6.062177826491083 C3.8508953774209953 -5.859588285879665, 4.189128084166947 -5.622755194947077, 4.499513267805756 -5.362311101832862 C4.809898451444564 -5.1018670087186475, 5.101867008718613 -4.809898451444602, 5.362311101832829 -4.499513267805796 C5.622755194947046 -4.189128084166989, 5.859588285879637 -3.8508953774210393, 6.062177826491056 -3.500000000000025 C6.2647673671024755 -3.1491046225790105, 6.439268938068949 -2.774884796001623, 6.577848345501348 -2.3941410032797092 C6.716427752933747 -2.0133972105577955, 6.823295662002342 -1.6145607442151562, 6.893654271085451 -1.2155372436685434 C6.96401288016856 -0.8165137431219307, 6.982275711847575 -0.2025895406114567, 7 -3.2800750208310675e-14 C7.017724288152425 0.2025895406113911, 7.017724288152424 -0.2025895406114242, 7 0" stroke="#666" stroke-width="2" fill="none" stroke-dasharray="0 0" style=""/><g><path d="M2.5 0 C2.5 0.14470681472244193, 2.487147457203058 0.29161205111496386, 2.46201938253052 0.4341204441673258 C2.436891307857982 0.5766288372196877, 2.3987241974763416 0.7190704323420595, 2.3492315519647713 0.8550503583141718 C2.299738906453201 0.991030284286284, 2.2374169168223177 1.124680222349637, 2.165063509461097 1.2499999999999998 C2.092710102099876 1.3753197776503625, 2.0081268553382365 1.496117172916774, 1.915111107797445 1.6069690242163481 C1.8220953602566536 1.7178208755159223, 1.7178208755159226 1.8220953602566536, 1.6069690242163484 1.915111107797445 C1.4961171729167742 2.0081268553382365, 1.375319777650363 2.0927101020998755, 1.2500000000000002 2.1650635094610964 C1.1246802223496375 2.2374169168223172, 0.9910302842862845 2.2997389064532, 0.8550503583141721 2.349231551964771 C0.7190704323420597 2.3987241974763416, 0.576628837219688 2.436891307857982, 0.43412044416732604 2.46201938253052 C0.291612051114964 2.487147457203058, 0.14470681472244212 2.5, 1.5308084989341916e-16 2.5 C-0.1447068147224418 2.5, -0.2916120511149638 2.487147457203058, -0.43412044416732576 2.46201938253052 C-0.5766288372196877 2.436891307857982, -0.7190704323420595 2.3987241974763416, -0.8550503583141718 2.3492315519647713 C-0.991030284286284 2.299738906453201, -1.124680222349637 2.2374169168223177, -1.2499999999999996 2.165063509461097 C-1.375319777650362 2.092710102099876, -1.4961171729167733 2.008126855338237, -1.6069690242163475 1.9151111077974459 C-1.7178208755159217 1.8220953602566548, -1.822095360256653 1.7178208755159234, -1.9151111077974443 1.6069690242163495 C-2.0081268553382357 1.4961171729167755, -2.0927101020998746 1.3753197776503645, -2.1650635094610955 1.250000000000002 C-2.2374169168223164 1.1246802223496395, -2.2997389064531992 0.9910302842862865, -2.34923155196477 0.8550503583141743 C-2.3987241974763407 0.7190704323420621, -2.436891307857981 0.5766288372196907, -2.4620193825305194 0.434120444167329 C-2.487147457203058 0.29161205111496724, -2.5 0.14470681472244545, -2.5 3.636830773662308e-15 C-2.5 -0.14470681472243818, -2.4871474572030587 -0.2916120511149599, -2.4620193825305208 -0.4341204441673218 C-2.436891307857983 -0.5766288372196837, -2.398724197476343 -0.7190704323420553, -2.3492315519647726 -0.8550503583141675 C-2.2997389064532023 -0.9910302842862798, -2.23741691682232 -1.1246802223496328, -2.165063509461099 -1.2499999999999956 C-2.092710102099878 -1.3753197776503583, -2.00812685533824 -1.4961171729167695, -1.9151111077974488 -1.606969024216344 C-1.8220953602566576 -1.7178208755159183, -1.7178208755159263 -1.82209536025665, -1.6069690242163523 -1.9151111077974416 C-1.4961171729167784 -2.0081268553382334, -1.3753197776503672 -2.0927101020998724, -1.2500000000000047 -2.1650635094610937 C-1.1246802223496422 -2.237416916822315, -0.9910302842862897 -2.299738906453198, -0.8550503583141776 -2.3492315519647686 C-0.7190704323420656 -2.3987241974763394, -0.5766288372196942 -2.4368913078579806, -0.43412044416733236 -2.462019382530519 C-0.29161205111497057 -2.4871474572030574, -0.1447068147224489 -2.4999999999999996, -7.120580697431198e-15 -2.5 C0.14470681472243463 -2.5000000000000004, 0.29161205111495647 -2.487147457203059, 0.4341204441673183 -2.4620193825305217 C0.5766288372196802 -2.436891307857984, 0.7190704323420518 -2.3987241974763442, 0.8550503583141642 -2.349231551964774 C0.9910302842862766 -2.2997389064532037, 1.1246802223496295 -2.2374169168223212, 1.2499999999999925 -2.165063509461101 C1.3753197776503554 -2.0927101020998804, 1.4961171729167668 -2.008126855338242, 1.6069690242163412 -1.915111107797451 C1.7178208755159157 -1.82209536025666, 1.8220953602566472 -1.7178208755159294, 1.915111107797439 -1.6069690242163557 C2.0081268553382308 -1.496117172916782, 2.09271010209987 -1.3753197776503712, 2.1650635094610915 -1.2500000000000089 C2.237416916822313 -1.1246802223496466, 2.299738906453196 -0.9910302842862939, 2.3492315519647673 -0.855050358314182 C2.3987241974763385 -0.71907043234207, 2.4368913078579792 -0.5766288372196986, 2.462019382530518 -0.4341204441673369 C2.487147457203057 -0.29161205111497523, 2.4936698970884197 -0.07235340736123454, 2.5 -1.1714553645825241e-14 C2.5063301029115803 0.07235340736121111, 2.50633010291158 -0.07235340736122292, 2.5 0" stroke="none" stroke-width="0" fill="#000" style=""/><path d="M2.5 0 C2.5 0.14470681472244193, 2.487147457203058 0.29161205111496386, 2.46201938253052 0.4341204441673258 C2.436891307857982 0.5766288372196877, 2.3987241974763416 0.7190704323420595, 2.3492315519647713 0.8550503583141718 C2.299738906453201 0.991030284286284, 2.2374169168223177 1.124680222349637, 2.165063509461097 1.2499999999999998 C2.092710102099876 1.3753197776503625, 2.0081268553382365 1.496117172916774, 1.915111107797445 1.6069690242163481 C1.8220953602566536 1.7178208755159223, 1.7178208755159226 1.8220953602566536, 1.6069690242163484 1.915111107797445 C1.4961171729167742 2.0081268553382365, 1.375319777650363 2.0927101020998755, 1.2500000000000002 2.1650635094610964 C1.1246802223496375 2.2374169168223172, 0.9910302842862845 2.2997389064532, 0.8550503583141721 2.349231551964771 C0.7190704323420597 2.3987241974763416, 0.576628837219688 2.436891307857982, 0.43412044416732604 2.46201938253052 C0.291612051114964 2.487147457203058, 0.14470681472244212 2.5, 1.5308084989341916e-16 2.5 C-0.1447068147224418 2.5, -0.2916120511149638 2.487147457203058, -0.43412044416732576 2.46201938253052 C-0.5766288372196877 2.436891307857982, -0.7190704323420595 2.3987241974763416, -0.8550503583141718 2.3492315519647713 C-0.991030284286284 2.299738906453201, -1.124680222349637 2.2374169168223177, -1.2499999999999996 2.165063509461097 C-1.375319777650362 2.092710102099876, -1.4961171729167733 2.008126855338237, -1.6069690242163475 1.9151111077974459 C-1.7178208755159217 1.8220953602566548, -1.822095360256653 1.7178208755159234, -1.9151111077974443 1.6069690242163495 C-2.0081268553382357 1.4961171729167755, -2.0927101020998746 1.3753197776503645, -2.1650635094610955 1.250000000000002 C-2.2374169168223164 1.1246802223496395, -2.2997389064531992 0.9910302842862865, -2.34923155196477 0.8550503583141743 C-2.3987241974763407 0.7190704323420621, -2.436891307857981 0.5766288372196907, -2.4620193825305194 0.434120444167329 C-2.487147457203058 0.29161205111496724, -2.5 0.14470681472244545, -2.5 3.636830773662308e-15 C-2.5 -0.14470681472243818, -2.4871474572030587 -0.2916120511149599, -2.4620193825305208 -0.4341204441673218 C-2.436891307857983 -0.5766288372196837, -2.398724197476343 -0.7190704323420553, -2.3492315519647726 -0.8550503583141675 C-2.2997389064532023 -0.9910302842862798, -2.23741691682232 -1.1246802223496328, -2.165063509461099 -1.2499999999999956 C-2.092710102099878 -1.3753197776503583, -2.00812685533824 -1.4961171729167695, -1.9151111077974488 -1.606969024216344 C-1.8220953602566576 -1.7178208755159183, -1.7178208755159263 -1.82209536025665, -1.6069690242163523 -1.9151111077974416 C-1.4961171729167784 -2.0081268553382334, -1.3753197776503672 -2.0927101020998724, -1.2500000000000047 -2.1650635094610937 C-1.1246802223496422 -2.237416916822315, -0.9910302842862897 -2.299738906453198, -0.8550503583141776 -2.3492315519647686 C-0.7190704323420656 -2.3987241974763394, -0.5766288372196942 -2.4368913078579806, -0.43412044416733236 -2.462019382530519 C-0.29161205111497057 -2.4871474572030574, -0.1447068147224489 -2.4999999999999996, -7.120580697431198e-15 -2.5 C0.14470681472243463 -2.5000000000000004, 0.29161205111495647 -2.487147457203059, 0.4341204441673183 -2.4620193825305217 C0.5766288372196802 -2.436891307857984, 0.7190704323420518 -2.3987241974763442, 0.8550503583141642 -2.349231551964774 C0.9910302842862766 -2.2997389064532037, 1.1246802223496295 -2.2374169168223212, 1.2499999999999925 -2.165063509461101 C1.3753197776503554 -2.0927101020998804, 1.4961171729167668 -2.008126855338242, 1.6069690242163412 -1.915111107797451 C1.7178208755159157 -1.82209536025666, 1.8220953602566472 -1.7178208755159294, 1.915111107797439 -1.6069690242163557 C2.0081268553382308 -1.496117172916782, 2.09271010209987 -1.3753197776503712, 2.1650635094610915 -1.2500000000000089 C2.237416916822313 -1.1246802223496466, 2.299738906453196 -0.9910302842862939, 2.3492315519647673 -0.855050358314182 C2.3987241974763385 -0.71907043234207, 2.4368913078579792 -0.5766288372196986, 2.462019382530518 -0.4341204441673369 C2.487147457203057 -0.29161205111497523, 2.4936698970884197 -0.07235340736123454, 2.5 -1.1714553645825241e-14 C2.5063301029115803 0.07235340736121111, 2.50633010291158 -0.07235340736122292, 2.5 0" stroke="#000" stroke-width="2" fill="none" stroke-dasharray="0 0" style=""/></g></g></g></g></g></g><defs><filter id="my-svg-drop-shadow" height="130%" width="130%"><feDropShadow dx="4" dy="4" stdDeviation="0" flood-opacity="0.06" flood-color="#000000"/></filter></defs><defs><filter id="my-svg-drop-shadow-small" height="150%" width="150%"><feDropShadow dx="2" dy="2" stdDeviation="0" flood-opacity="0.06" flood-color="#000000"/></filter></defs><linearGradient id="my-svg-gradient" gradientUnits="objectBoundingBox" x1="0%" y1="0%" x2="100%" y2="0%"><stop offset="0%" stop-color="hsl(0, 0%, 83.3333333333%)" stop-opacity="1"/><stop offset="100%" stop-color="hsl(0, 0%, 88.9215686275%)" stop-opacity="1"/></linearGradient></svg>